<svg width="25" height="25" viewBox="0 0 25 25" fill="none" xmlns="http://www.w3.org/2000/svg">
<path fill-rule="evenodd" clip-rule="evenodd" d="M4.24747 6.95459L16.5535 3.65759C17.7542 3.33584 18.988 4.04834 19.309 5.24834L19.7657 6.95234H20.8555C22.0982 6.95234 23.1055 7.95959 23.1055 9.20234V18.9523C23.1055 20.1951 22.0982 21.2023 20.8555 21.2023C17.2232 21.2023 7.98772 21.2023 4.35547 21.2023C3.11272 21.2023 2.10547 20.1951 2.10547 18.9523C2.10547 16.4991 2.10547 11.6556 2.10547 9.20234C2.10547 7.99634 3.05497 7.01159 4.24747 6.95459ZM21.6055 11.4523V9.20234C21.6055 8.78834 21.2695 8.45234 20.8555 8.45234H4.36897H4.36222H4.34497C3.93547 8.45759 3.60547 8.79134 3.60547 9.20234V18.9523C3.60547 19.3663 3.94147 19.7023 4.35547 19.7023H20.8555C21.2695 19.7023 21.6055 19.3663 21.6055 18.9523V16.7023H16.3555C15.958 16.7023 15.5762 16.5441 15.295 16.2628C15.0137 15.9816 14.8555 15.5998 14.8555 15.2023C14.8555 14.5491 14.8555 13.6056 14.8555 12.9523C14.8555 12.5548 15.0137 12.1731 15.295 11.8918C15.5762 11.6106 15.958 11.4523 16.3555 11.4523H21.6055ZM16.3555 12.9523V15.2023H21.6055V12.9523H16.3555ZM18.2132 6.95234L17.8607 5.63684C17.7535 5.23634 17.3417 4.99934 16.942 5.10659L10.0525 6.95234H18.2132Z" fill="#EEEEEE"/>
</svg>
