<svg width="22" height="22" viewBox="0 0 22 22" fill="none" xmlns="http://www.w3.org/2000/svg">
<path d="M18.3242 20.4529H3.88672C3.36457 20.4529 2.86381 20.2455 2.4946 19.8763C2.12539 19.5071 1.91797 19.0063 1.91797 18.4842V9.29669C1.91797 8.77455 2.12539 8.27379 2.4946 7.90458C2.86381 7.53536 3.36457 7.32794 3.88672 7.32794H18.3242C18.8464 7.32794 19.3471 7.53536 19.7163 7.90458C20.0855 8.27379 20.293 8.77455 20.293 9.29669V18.4842C20.293 19.0063 20.0855 19.5071 19.7163 19.8763C19.3471 20.2455 18.8464 20.4529 18.3242 20.4529ZM3.88672 8.64044C3.71267 8.64044 3.54575 8.70958 3.42268 8.83265C3.29961 8.95572 3.23047 9.12264 3.23047 9.29669V18.4842C3.23047 18.6582 3.29961 18.8252 3.42268 18.9482C3.54575 19.0713 3.71267 19.1404 3.88672 19.1404H18.3242C18.4983 19.1404 18.6652 19.0713 18.7883 18.9482C18.9113 18.8252 18.9805 18.6582 18.9805 18.4842V9.29669C18.9805 9.12264 18.9113 8.95572 18.7883 8.83265C18.6652 8.70958 18.4983 8.64044 18.3242 8.64044H3.88672ZM17.668 2.73419C17.668 2.56014 17.5988 2.39322 17.4758 2.27015C17.3527 2.14708 17.1858 2.07794 17.0117 2.07794H5.19922C5.02517 2.07794 4.85825 2.14708 4.73518 2.27015C4.61211 2.39322 4.54297 2.56014 4.54297 2.73419C4.54297 2.90824 4.61211 3.07516 4.73518 3.19823C4.85825 3.3213 5.02517 3.39044 5.19922 3.39044H17.0117C17.1858 3.39044 17.3527 3.3213 17.4758 3.19823C17.5988 3.07516 17.668 2.90824 17.668 2.73419ZM18.9805 5.35919C18.9805 5.18514 18.9113 5.01822 18.7883 4.89515C18.6652 4.77208 18.4983 4.70294 18.3242 4.70294H3.88672C3.71267 4.70294 3.54575 4.77208 3.42268 4.89515C3.29961 5.01822 3.23047 5.18514 3.23047 5.35919C3.23047 5.53324 3.29961 5.70016 3.42268 5.82323C3.54575 5.9463 3.71267 6.01544 3.88672 6.01544H18.3242C18.4983 6.01544 18.6652 5.9463 18.7883 5.82323C18.9113 5.70016 18.9805 5.53324 18.9805 5.35919Z" fill="#EEEEEE"/>
</svg>
