<svg width="25" height="25" viewBox="0 0 25 25" fill="none" xmlns="http://www.w3.org/2000/svg">
<path d="M15.6055 20.4936C12.8055 20.4936 10.6055 18.2936 10.6055 15.4936C10.6055 12.6936 12.8055 10.4936 15.6055 10.4936C18.4055 10.4936 20.6055 12.6936 20.6055 15.4936C20.6055 18.2936 18.4055 20.4936 15.6055 20.4936ZM15.6055 12.4936C13.9055 12.4936 12.6055 13.7936 12.6055 15.4936C12.6055 17.1936 13.9055 18.4936 15.6055 18.4936C17.3055 18.4936 18.6055 17.1936 18.6055 15.4936C18.6055 13.7936 17.3055 12.4936 15.6055 12.4936Z" fill="#EEEEEE"/>
<path d="M21.6055 22.4937C21.3055 22.4937 21.1055 22.3937 20.9055 22.1937L18.4055 19.6937C18.0055 19.2937 18.0055 18.6937 18.4055 18.2937C18.8055 17.8937 19.4055 17.8937 19.8055 18.2937L22.3055 20.7937C22.7055 21.1937 22.7055 21.7937 22.3055 22.1937C22.1055 22.3937 21.9055 22.4937 21.6055 22.4937Z" fill="#EEEEEE"/>
<path d="M20.6055 7.49362H4.60547C4.00547 7.49362 3.60547 7.09362 3.60547 6.49362C3.60547 5.89362 4.00547 5.49362 4.60547 5.49362H20.6055C21.2055 5.49362 21.6055 5.89362 21.6055 6.49362C21.6055 7.09362 21.2055 7.49362 20.6055 7.49362Z" fill="#EEEEEE"/>
<path d="M8.60547 13.4937H4.60547C4.00547 13.4937 3.60547 13.0937 3.60547 12.4937C3.60547 11.8937 4.00547 11.4937 4.60547 11.4937H8.60547C9.20547 11.4937 9.60547 11.8937 9.60547 12.4937C9.60547 13.0937 9.20547 13.4937 8.60547 13.4937Z" fill="#EEEEEE"/>
<path d="M8.60547 19.4937H4.60547C4.00547 19.4937 3.60547 19.0937 3.60547 18.4937C3.60547 17.8937 4.00547 17.4937 4.60547 17.4937H8.60547C9.20547 17.4937 9.60547 17.8937 9.60547 18.4937C9.60547 19.0937 9.20547 19.4937 8.60547 19.4937Z" fill="#EEEEEE"/>
</svg>
