<svg width="46" height="46" viewBox="0 0 46 46" fill="none" xmlns="http://www.w3.org/2000/svg">
<circle cx="22.8608" cy="23.2127" r="22.2553" fill="white"/>
<path d="M14.4212 27.9728C14.2614 27.9727 14.1081 27.9115 13.9951 27.8026C13.8821 27.6938 13.8185 27.5462 13.8184 27.3923V18.8288C13.8184 18.6748 13.8819 18.5272 13.9949 18.4183C14.108 18.3095 14.2613 18.2483 14.4212 18.2483C14.5811 18.2483 14.7344 18.3095 14.8475 18.4183C14.9605 18.5272 15.024 18.6748 15.024 18.8288V27.3923C15.0239 27.5462 14.9603 27.6938 14.8473 27.8026C14.7343 27.9115 14.581 27.9727 14.4212 27.9728Z" fill="#1E1E1E"/>
<path d="M31.3001 27.9728C31.1403 27.9727 30.987 27.9115 30.874 27.8026C30.761 27.6938 30.6974 27.5462 30.6973 27.3923V18.8288C30.6973 18.6748 30.7608 18.5272 30.8738 18.4183C30.9869 18.3095 31.1402 18.2483 31.3001 18.2483C31.46 18.2483 31.6133 18.3095 31.7264 18.4183C31.8394 18.5272 31.9029 18.6748 31.9029 18.8288V27.3923C31.9028 27.5462 31.8392 27.6938 31.7262 27.8026C31.6132 27.9115 31.4599 27.9727 31.3001 27.9728Z" fill="#1E1E1E"/>
<path d="M31.5076 27.3923H14.2126C13.9481 27.3926 13.6945 27.4939 13.5074 27.6741C13.3204 27.8542 13.2152 28.0984 13.2148 28.3531V32.0043C13.2152 32.2591 13.3204 32.5033 13.5074 32.6834C13.6945 32.8635 13.9481 32.9648 14.2126 32.9651H31.5076C31.7721 32.9648 32.0257 32.8635 32.2127 32.6834C32.3998 32.5033 32.505 32.2591 32.5053 32.0043V28.3531C32.505 28.0984 32.3998 27.8542 32.2127 27.6741C32.0257 27.4939 31.7721 27.3926 31.5076 27.3923ZM29.8529 30.6431H15.8673C15.7394 30.6431 15.6167 30.5942 15.5263 30.5071C15.4358 30.42 15.385 30.3019 15.385 30.1787C15.385 30.0555 15.4358 29.9374 15.5263 29.8503C15.6167 29.7632 15.7394 29.7143 15.8673 29.7143H29.8529C29.9808 29.7143 30.1035 29.7632 30.1939 29.8503C30.2843 29.9374 30.3352 30.0555 30.3352 30.1787C30.3352 30.3019 30.2843 30.42 30.1939 30.5071C30.1035 30.5942 29.9808 30.6431 29.8529 30.6431Z" fill="#1E1E1E"/>
<path d="M18.2786 16.5682H13.6971C13.5692 16.5682 13.4465 16.6172 13.3561 16.7043C13.2657 16.7914 13.2149 16.9095 13.2148 17.0326V17.2202C13.2148 17.9284 13.507 18.6076 14.027 19.1084C14.5471 19.6091 15.2524 19.8905 15.9879 19.8905C16.7233 19.8905 17.4286 19.6091 17.9487 19.1084C18.4687 18.6076 18.7609 17.9284 18.7609 17.2202V17.0326C18.7609 16.9095 18.71 16.7914 18.6196 16.7043C18.5292 16.6172 18.4065 16.5682 18.2786 16.5682Z" fill="#1E1E1E"/>
<path d="M27.4427 16.5682H22.8612C22.7333 16.5682 22.6106 16.6172 22.5202 16.7043C22.4297 16.7914 22.3789 16.9095 22.3789 17.0326V17.2202C22.3789 17.9284 22.6711 18.6076 23.1911 19.1084C23.7111 19.6091 24.4165 19.8905 25.1519 19.8905C25.8874 19.8905 26.5927 19.6091 27.1127 19.1084C27.6328 18.6076 27.9249 17.9284 27.9249 17.2202V17.0326C27.9249 16.9095 27.8741 16.7914 27.7837 16.7043C27.6932 16.6172 27.5706 16.5682 27.4427 16.5682Z" fill="#1E1E1E"/>
<path d="M22.8606 16.5682H18.2791C18.1512 16.5682 18.0286 16.6172 17.9381 16.7043C17.8477 16.7914 17.7969 16.9095 17.7969 17.0326V17.2202C17.7969 17.9284 18.089 18.6076 18.6091 19.1084C19.1291 19.6091 19.8344 19.8905 20.5699 19.8905C21.3053 19.8905 22.0107 19.6091 22.5307 19.1084C23.0507 18.6076 23.3429 17.9284 23.3429 17.2202V17.0326C23.3429 16.9095 23.2921 16.7914 23.2016 16.7043C23.1112 16.6172 22.9885 16.5682 22.8606 16.5682Z" fill="#1E1E1E"/>
<path d="M32.0227 16.5682H27.4412C27.3133 16.5682 27.1907 16.6172 27.1002 16.7043C27.0098 16.7914 26.959 16.9095 26.959 17.0326V17.2202C26.959 17.9284 27.2511 18.6076 27.7712 19.1084C28.2912 19.6091 28.9965 19.8905 29.732 19.8905C30.4674 19.8905 31.1728 19.6091 31.6928 19.1084C32.2128 18.6076 32.505 17.9284 32.505 17.2202V17.0326C32.505 16.9095 32.4542 16.7914 32.3637 16.7043C32.2733 16.6172 32.1506 16.5682 32.0227 16.5682Z" fill="#1E1E1E"/>
<path d="M19.3359 13.4603H15.5316L13.2782 16.8027C13.2364 16.8733 13.2145 16.9533 13.2148 17.0346C13.2152 17.1159 13.2377 17.1957 13.2801 17.266C13.3225 17.3363 13.3834 17.3946 13.4565 17.4352C13.5297 17.4757 13.6127 17.4971 13.6971 17.497H18.2786C18.3835 17.497 18.4855 17.4641 18.5692 17.4033C18.6529 17.3424 18.7138 17.257 18.7425 17.1599L19.7998 14.0519C19.8203 13.9828 19.8238 13.9101 19.8101 13.8394C19.7964 13.7688 19.7659 13.7022 19.7209 13.6448C19.6759 13.5875 19.6177 13.541 19.5509 13.509C19.4841 13.4769 19.4105 13.4603 19.3359 13.4603Z" fill="#1E1E1E"/>
<path d="M27.9066 16.9054L26.7495 13.4605L22.3791 13.4603L22.3789 17.0326C22.3789 17.1558 22.4297 17.2739 22.5202 17.361C22.6106 17.4481 22.7333 17.497 22.8612 17.497H27.4427C27.5173 17.4971 27.5909 17.4804 27.6577 17.4484C27.7245 17.4164 27.7827 17.3699 27.8276 17.3125C27.8726 17.2552 27.9031 17.1885 27.9168 17.1179C27.9305 17.0473 27.927 16.9745 27.9066 16.9054Z" fill="#1E1E1E"/>
<path d="M23.3428 13.4603H18.9726L17.8153 16.9054C17.7949 16.9745 17.7914 17.0473 17.8051 17.1179C17.8188 17.1885 17.8493 17.2552 17.8943 17.3125C17.9392 17.3699 17.9974 17.4164 18.0642 17.4484C18.131 17.4804 18.2046 17.4971 18.2792 17.497H22.8607C22.9886 17.497 23.1113 17.4481 23.2017 17.361C23.2922 17.2739 23.343 17.1558 23.343 17.0326L23.3428 13.4603Z" fill="#1E1E1E"/>
<path d="M32.4424 16.8027L30.189 13.4603H26.3847C26.3101 13.4603 26.2365 13.4769 26.1697 13.509C26.1029 13.541 26.0447 13.5875 25.9997 13.6448C25.9548 13.7022 25.9242 13.7688 25.9105 13.8394C25.8968 13.9101 25.9004 13.9828 25.9208 14.0519L26.9781 17.1599C27.0069 17.257 27.0677 17.3424 27.1514 17.4033C27.2351 17.4641 27.3371 17.497 27.442 17.497H32.0235C32.1079 17.4971 32.1909 17.4757 32.2641 17.4352C32.3373 17.3946 32.3981 17.3363 32.4405 17.266C32.4829 17.1957 32.5054 17.1159 32.5058 17.0346C32.5061 16.9533 32.4843 16.8733 32.4424 16.8027Z" fill="#1E1E1E"/>
<path d="M20.2908 25.8745L21.5467 25.4717C21.5847 25.4591 21.6186 25.4367 21.6445 25.4069C21.6704 25.3772 21.6874 25.3413 21.6938 25.3029C21.7002 25.2646 21.6957 25.2254 21.6807 25.1893C21.6657 25.1533 21.6409 25.1218 21.6088 25.0983C21.2978 24.8355 21.0503 24.5102 20.8838 24.1454C20.7173 23.7806 20.6358 23.3852 20.645 22.9868C20.645 21.5727 21.637 20.4263 22.8608 20.4263C24.0846 20.4263 25.0766 21.5727 25.0766 22.9868C25.0858 23.3852 25.0043 23.7806 24.8378 24.1454C24.6713 24.5102 24.4238 24.8355 24.1128 25.0983C24.0807 25.1218 24.0559 25.1533 24.0409 25.1893C24.026 25.2254 24.0214 25.2646 24.0278 25.3029C24.0342 25.3413 24.0513 25.3772 24.0772 25.4069C24.1031 25.4367 24.1369 25.4591 24.175 25.4717L25.4308 25.8745C25.7364 25.9726 26.0161 26.1336 26.2505 26.3463C26.4849 26.5591 26.6683 26.8185 26.7879 27.1065L27.0493 27.7359C27.0762 27.8006 27.0862 27.8707 27.0785 27.9401C27.0707 28.0094 27.0454 28.0759 27.0048 28.1336C26.9642 28.1914 26.9095 28.2386 26.8456 28.2713C26.7816 28.304 26.7103 28.3211 26.6379 28.3211H19.0838C19.0114 28.3211 18.94 28.304 18.8761 28.2713C18.8121 28.2386 18.7574 28.1914 18.7168 28.1336C18.6762 28.0759 18.6509 28.0094 18.6432 27.9401C18.6354 27.8707 18.6454 27.8006 18.6723 27.7359L18.9338 27.1065C19.0534 26.8185 19.2368 26.5591 19.4712 26.3463C19.7055 26.1336 19.9853 25.9726 20.2908 25.8745Z" fill="#1E1E1E"/>
</svg>
