<svg width="22" height="22" viewBox="0 0 22 22" fill="none" xmlns="http://www.w3.org/2000/svg">
<path d="M15.4805 6.83795C15.8429 6.83795 16.1367 6.54414 16.1367 6.1817C16.1367 5.81927 15.8429 5.52545 15.4805 5.52545V6.83795ZM6.73047 5.52545C6.36804 5.52545 6.07422 5.81927 6.07422 6.1817C6.07422 6.54414 6.36804 6.83795 6.73047 6.83795V5.52545ZM15.4805 5.52545H6.73047V6.83795H15.4805V5.52545Z" fill="#EEEEEE"/>
<path d="M15.4805 10.338C15.8429 10.338 16.1367 10.0441 16.1367 9.6817C16.1367 9.31928 15.8429 9.02545 15.4805 9.02545V10.338ZM6.73047 9.02545C6.36804 9.02545 6.07422 9.31928 6.07422 9.6817C6.07422 10.0441 6.36804 10.338 6.73047 10.338V9.02545ZM15.4805 9.02545H6.73047V10.338H15.4805V9.02545Z" fill="#EEEEEE"/>
<path d="M11.1055 13.838C11.4679 13.838 11.7617 13.5441 11.7617 13.1817C11.7617 12.8193 11.4679 12.5255 11.1055 12.5255V13.838ZM6.73047 12.5255C6.36804 12.5255 6.07422 12.8193 6.07422 13.1817C6.07422 13.5441 6.36804 13.838 6.73047 13.838V12.5255ZM11.1055 12.5255H6.73047V13.838H11.1055V12.5255Z" fill="#EEEEEE"/>
<path d="M4.98047 2.46295H17.2305V1.15045H4.98047V2.46295ZM18.3242 3.5567V16.8167H19.6367V3.5567H18.3242ZM16.86 17.8459L15.4934 17.3539L15.0489 18.5889L16.4154 19.0808L16.86 17.8459ZM13.691 17.4236L11.5543 18.3851L12.0929 19.582L14.2296 18.6205L13.691 17.4236ZM10.6566 18.3851L8.51997 17.4236L7.98137 18.6205L10.118 19.582L10.6566 18.3851ZM6.71749 17.3539L5.35094 17.8459L5.79551 19.0808L7.16205 18.5889L6.71749 17.3539ZM3.88672 16.8167V3.5567H2.57422V16.8167H3.88672ZM5.35094 17.8459C4.63819 18.1024 3.88672 17.5743 3.88672 16.8167H2.57422C2.57422 18.4833 4.22745 19.6452 5.79551 19.0808L5.35094 17.8459ZM8.51997 17.4236C7.95091 17.1675 7.30463 17.1426 6.71749 17.3539L7.16205 18.5889C7.42894 18.4927 7.72271 18.5041 7.98137 18.6205L8.51997 17.4236ZM11.5543 18.3851C11.2688 18.5135 10.9421 18.5135 10.6566 18.3851L10.118 19.582C10.746 19.8646 11.4649 19.8646 12.0929 19.582L11.5543 18.3851ZM15.4934 17.3539C14.9063 17.1426 14.26 17.1675 13.691 17.4236L14.2296 18.6205C14.4882 18.5041 14.782 18.4927 15.0489 18.5889L15.4934 17.3539ZM18.3242 16.8167C18.3242 17.5743 17.5728 18.1024 16.86 17.8459L16.4154 19.0808C17.9835 19.6452 19.6367 18.4833 19.6367 16.8167H18.3242ZM17.2305 2.46295C17.8346 2.46295 18.3242 2.95264 18.3242 3.5567H19.6367C19.6367 2.22777 18.5594 1.15045 17.2305 1.15045V2.46295ZM4.98047 1.15045C3.65154 1.15045 2.57422 2.22777 2.57422 3.5567H3.88672C3.88672 2.95264 4.3764 2.46295 4.98047 2.46295V1.15045Z" fill="#EEEEEE"/>
</svg>
