<svg width="25" height="25" viewBox="0 0 25 25" fill="none" xmlns="http://www.w3.org/2000/svg">
<g clip-path="url(#clip0_97_3924)">
<path d="M22.5177 7.20854C22.5139 7.17479 22.5064 7.14104 22.4952 7.11104C22.4914 7.09229 22.4839 7.08104 22.4764 7.06604C22.4614 7.03604 22.4464 7.00979 22.4239 6.98354C22.4127 6.97229 22.4052 6.96479 22.3939 6.95354C22.3714 6.93479 22.3527 6.91979 22.3302 6.90854L12.8277 1.41854C12.7114 1.35479 12.5689 1.35479 12.4527 1.41854L2.87891 6.94604C2.76266 7.01354 2.69141 7.13729 2.69141 7.27229C2.69141 7.27604 2.69516 7.27979 2.69516 7.28354C2.69516 7.29104 2.69141 7.29479 2.69141 7.29854V18.001C2.69141 18.0198 2.69891 18.031 2.70266 18.046C2.70266 18.0723 2.70641 18.0985 2.71766 18.1248C2.72516 18.1473 2.73641 18.166 2.74766 18.1848C2.75891 18.2073 2.77016 18.2298 2.78891 18.2485C2.80391 18.2673 2.82266 18.2785 2.84141 18.2935C2.85641 18.3048 2.86391 18.3198 2.87891 18.3273L12.3852 23.821C12.3964 23.8248 12.4039 23.8285 12.4152 23.8323C12.4227 23.836 12.4339 23.8398 12.4414 23.8435C12.4827 23.8585 12.5277 23.8698 12.5727 23.8698C12.6177 23.8698 12.6627 23.8585 12.7039 23.8435C12.7152 23.8398 12.7227 23.836 12.7302 23.8323C12.7414 23.8285 12.7527 23.8248 12.7602 23.821L22.3339 18.2935C22.3489 18.2823 22.3564 18.271 22.3714 18.2598C22.3902 18.2448 22.4089 18.2298 22.4239 18.211C22.4427 18.1923 22.4539 18.1698 22.4652 18.151C22.4764 18.1285 22.4877 18.1098 22.4952 18.091C22.5064 18.0648 22.5102 18.0385 22.5102 18.0123C22.5139 17.9973 22.5214 17.9823 22.5214 17.9673V7.23104C22.5214 7.22354 22.5177 7.21604 22.5177 7.20854ZM12.6402 2.17604L21.3927 7.23104L17.7327 9.34604L8.97641 4.29479L12.6402 2.17604ZM12.1977 22.846L3.44141 17.7873V7.92104L12.1977 12.976V22.846ZM12.5727 12.3235L3.81641 7.27229L8.22641 4.72604L16.9827 9.78104L12.5727 12.3235ZM21.7714 17.7498L12.9477 22.846V12.9723L17.3577 10.4298V12.5973C17.3577 12.8073 17.5227 12.9723 17.7327 12.9723C17.9389 12.9723 18.1077 12.8073 18.1077 12.5973V9.99479L21.7714 7.87979V17.7498Z" fill="#EEEEEE" stroke="#EEEEEE" stroke-width="0.5"/>
</g>
<defs>
<clipPath id="clip0_97_3924">
<rect width="24" height="24" fill="white" transform="translate(0.605469 0.619812)"/>
</clipPath>
</defs>
</svg>
