<svg width="22" height="22" viewBox="0 0 22 22" fill="none" xmlns="http://www.w3.org/2000/svg">
<g clip-path="url(#clip0_97_3880)">
<path d="M20.9492 13.4728C20.587 13.4728 20.293 13.7668 20.293 14.129V18.7228H1.91797V10.8478H9.13672C9.49897 10.8478 9.79297 10.5538 9.79297 10.1915C9.79297 9.82928 9.49897 9.53528 9.13672 9.53528H1.91797V6.91028H9.13672C9.49897 6.91028 9.79297 6.61628 9.79297 6.25403C9.79297 5.89178 9.49897 5.59778 9.13672 5.59778H1.91797C1.19347 5.59778 0.605469 6.18578 0.605469 6.91028V18.7228C0.605469 19.4473 1.19347 20.0353 1.91797 20.0353H20.293C21.0175 20.0353 21.6055 19.4473 21.6055 18.7228V14.129C21.6055 13.7668 21.3115 13.4728 20.9492 13.4728Z" fill="#EEEEEE"/>
<path d="M6.51172 13.4728H3.88672C3.52447 13.4728 3.23047 13.7668 3.23047 14.129C3.23047 14.4913 3.52447 14.7853 3.88672 14.7853H6.51172C6.87397 14.7853 7.16797 14.4913 7.16797 14.129C7.16797 13.7668 6.87397 13.4728 6.51172 13.4728Z" fill="#EEEEEE"/>
<path d="M21.2078 3.68157L16.614 1.71282C16.4473 1.64325 16.2623 1.64325 16.0956 1.71282L11.5018 3.68157C11.2617 3.78525 11.1055 4.02282 11.1055 4.28532V6.91032C11.1055 10.521 12.4403 12.6315 16.0287 14.6987C16.1297 14.7564 16.2426 14.7853 16.3555 14.7853C16.4683 14.7853 16.5812 14.7564 16.6823 14.6987C20.2707 12.6368 21.6055 10.5263 21.6055 6.91032V4.28532C21.6055 4.02282 21.4493 3.78525 21.2078 3.68157ZM20.293 6.91032C20.293 9.94088 19.2902 11.6091 16.3555 13.3678C13.4207 11.6051 12.418 9.93694 12.418 6.91032V4.71844L16.3555 3.03057L20.293 4.71844V6.91032Z" fill="#EEEEEE"/>
<path d="M18.7346 5.74087C18.4524 5.51774 18.0403 5.56105 17.8119 5.84324L15.7486 8.42361L14.9323 7.20299C14.7288 6.90112 14.3206 6.82105 14.0227 7.02055C13.7221 7.22137 13.6394 7.62955 13.8403 7.93012L15.1528 9.89886C15.2696 10.0734 15.4612 10.1811 15.6712 10.1916C15.6804 10.1916 15.6909 10.1916 15.6988 10.1916C15.8969 10.1916 16.0859 10.1023 16.2119 9.9448L18.8369 6.66355C19.0627 6.38005 19.0181 5.96793 18.7346 5.74087Z" fill="#EEEEEE"/>
</g>
<defs>
<clipPath id="clip0_97_3880">
<rect width="21" height="21" fill="white" transform="translate(0.605469 0.347961)"/>
</clipPath>
</defs>
</svg>
