<svg width="22" height="22" viewBox="0 0 22 22" fill="none" xmlns="http://www.w3.org/2000/svg">
<g clip-path="url(#clip0_97_3913)">
<path d="M18.6 14.0071C19.3255 13.4359 19.8008 12.5602 19.8008 11.5673C19.8008 9.84851 18.4024 8.45013 16.6836 8.45013C16.0648 8.45013 15.4908 8.63655 15.0054 8.94873C14.5003 8.2606 13.8095 7.74382 13.0258 7.44133C13.749 6.86999 14.2227 5.99585 14.2227 5.00482C14.2227 3.28601 12.8243 1.88763 11.1055 1.88763C9.38666 1.88763 7.98828 3.28601 7.98828 5.00482C7.98828 5.99585 8.46196 6.86999 9.1851 7.44133C8.4014 7.74382 7.71062 8.2606 7.20554 8.94873C6.72016 8.63655 6.14618 8.45013 5.52734 8.45013C3.80853 8.45013 2.41016 9.84851 2.41016 11.5673C2.41016 12.5602 2.88544 13.4359 3.6109 14.0071C1.9533 14.6483 0.769531 16.2488 0.769531 18.1298V19.4423C0.769531 19.7141 0.98999 19.9345 1.26172 19.9345C1.53345 19.9345 1.75391 19.7141 1.75391 19.4423V18.1298C1.75391 16.2303 3.29968 14.6845 5.19922 14.6845H5.85547C7.755 14.6845 9.30078 16.2303 9.30078 18.1298V19.4423C9.30078 19.7141 9.52124 19.9345 9.79297 19.9345C10.0647 19.9345 10.2852 19.7141 10.2852 19.4423V18.1298C10.2852 16.2488 9.10139 14.6483 7.44378 14.0071C8.16925 13.4359 8.64453 12.5602 8.64453 11.5673C8.64453 10.835 8.38017 10.1698 7.95592 9.63726C8.59438 8.70672 9.63443 8.12201 10.7773 8.12201H11.4336C12.5765 8.12201 13.6166 8.70672 14.255 9.63726C13.8308 10.1698 13.5664 10.835 13.5664 11.5673C13.5664 12.5602 14.0417 13.4359 14.7672 14.0071C13.1095 14.6483 11.9258 16.2488 11.9258 18.1298V19.4423C11.9258 19.7141 12.1462 19.9345 12.418 19.9345C12.6897 19.9345 12.9102 19.7141 12.9102 19.4423V18.1298C12.9102 16.2303 14.4559 14.6845 16.3555 14.6845H17.0117C18.9113 14.6845 20.457 16.2303 20.457 18.1298V19.4423C20.457 19.7141 20.6775 19.9345 20.9492 19.9345C21.2209 19.9345 21.4414 19.7141 21.4414 19.4423V18.1298C21.4414 16.2488 20.2576 14.6483 18.6 14.0071ZM5.52734 13.7001C4.35135 13.7001 3.39453 12.7433 3.39453 11.5673C3.39453 10.3913 4.35135 9.43451 5.52734 9.43451C6.70334 9.43451 7.66016 10.3913 7.66016 11.5673C7.66016 12.7433 6.70334 13.7001 5.52734 13.7001ZM11.1055 2.87201C12.2815 2.87201 13.2383 3.82883 13.2383 5.00482C13.2383 6.18082 12.2815 7.13763 11.1055 7.13763C9.92947 7.13763 8.97266 6.18082 8.97266 5.00482C8.97266 3.82883 9.92947 2.87201 11.1055 2.87201ZM16.6836 9.43451C17.8596 9.43451 18.8164 10.3913 18.8164 11.5673C18.8164 12.7433 17.8596 13.7001 16.6836 13.7001C15.5076 13.7001 14.5508 12.7433 14.5508 11.5673C14.5508 10.3913 15.5076 9.43451 16.6836 9.43451Z" fill="#EEEEEE"/>
</g>
<defs>
<clipPath id="clip0_97_3913">
<rect width="21" height="21" fill="white" transform="translate(0.605469 0.411072)"/>
</clipPath>
</defs>
</svg>
